REM DIRINDEX 1\2,1\3,1\4
REM DIRNAME cjc151,folder01,folder02,folder03
TITLE ""
FILE "045 045_TOEFL_3900.mp3" MP3
  TRACK 01 AUDIO
    TITLE "2:cjc151_1947"
    INDEX 01 00:00:00
  TRACK 02 AUDIO
    TITLE "0:"
    INDEX 01 00:01:28
  TRACK 03 AUDIO
    TITLE "3:cjc151_1948"
    INDEX 01 00:03:06
  TRACK 04 AUDIO
    TITLE "0:"
    INDEX 01 00:06:63
  TRACK 05 AUDIO
    TITLE "2:cjc151_1949"
    INDEX 01 00:08:42
  TRACK 06 AUDIO
    TITLE "0:"
    INDEX 01 00:09:51
  TRACK 07 AUDIO
    TITLE "3:cjc151_1950"
    INDEX 01 00:11:31
  TRACK 08 AUDIO
    TITLE "0:"
    INDEX 01 00:15:05
  TRACK 09 AUDIO
    TITLE "2:cjc151_1951"
    INDEX 01 00:16:59
  TRACK 10 AUDIO
    TITLE "0:"
    INDEX 01 00:18:01
  TRACK 11 AUDIO
    TITLE "3:cjc151_1952"
    INDEX 01 00:19:56
  TRACK 12 AUDIO
    TITLE "0:"
    INDEX 01 00:23:30
  TRACK 13 AUDIO
    TITLE "2:cjc151_1953"
    INDEX 01 00:25:09
  TRACK 14 AUDIO
    TITLE "0:"
    INDEX 01 00:26:22
  TRACK 15 AUDIO
    TITLE "3:cjc151_1954"
    INDEX 01 00:28:02
  TRACK 16 AUDIO
    TITLE "0:"
    INDEX 01 00:31:61
  TRACK 17 AUDIO
    TITLE "2:cjc151_1955"
    INDEX 01 00:33:38
  TRACK 18 AUDIO
    TITLE "0:"
    INDEX 01 00:34:51
  TRACK 19 AUDIO
    TITLE "3:cjc151_1956"
    INDEX 01 00:36:31
  TRACK 20 AUDIO
    TITLE "0:"
    INDEX 01 00:39:05
  TRACK 21 AUDIO
    TITLE "2:cjc151_1957"
    INDEX 01 00:40:58
  TRACK 22 AUDIO
    TITLE "0:"
    INDEX 01 00:42:14
  TRACK 23 AUDIO
    TITLE "3:cjc151_1958"
    INDEX 01 00:43:66
  TRACK 24 AUDIO
    TITLE "0:"
    INDEX 01 00:48:30
  TRACK 25 AUDIO
    TITLE "2:cjc151_1959"
    INDEX 01 00:50:09
  TRACK 26 AUDIO
    TITLE "0:"
    INDEX 01 00:53:55
  TRACK 27 AUDIO
    TITLE "3:cjc151_1960"
    INDEX 01 00:55:34
  TRACK 28 AUDIO
    TITLE "0:"
    INDEX 01 00:59:51
  TRACK 29 AUDIO
    TITLE "2:cjc151_1961"
    INDEX 01 01:01:33
  TRACK 30 AUDIO
    TITLE "0:"
    INDEX 01 01:02:42
  TRACK 31 AUDIO
    TITLE "3:cjc151_1962"
    INDEX 01 01:04:17
  TRACK 32 AUDIO
    TITLE "0:"
    INDEX 01 01:08:72
  TRACK 33 AUDIO
    TITLE "2:cjc151_1963"
    INDEX 01 01:10:51
  TRACK 34 AUDIO
    TITLE "0:"
    INDEX 01 01:11:58
  TRACK 35 AUDIO
    TITLE "3:cjc151_1964"
    INDEX 01 01:13:36
  TRACK 36 AUDIO
    TITLE "0:"
    INDEX 01 01:17:02
  TRACK 37 AUDIO
    TITLE "2:cjc151_1965"
    INDEX 01 01:18:56
  TRACK 38 AUDIO
    TITLE "0:"
    INDEX 01 01:21:08
  TRACK 39 AUDIO
    TITLE "3:cjc151_1966"
    INDEX 01 01:22:58
  TRACK 40 AUDIO
    TITLE "0:"
    INDEX 01 01:26:21
  TRACK 41 AUDIO
    TITLE "2:cjc151_1967"
    INDEX 01 01:27:73
  TRACK 42 AUDIO
    TITLE "0:"
    INDEX 01 01:29:50
  TRACK 43 AUDIO
    TITLE "3:cjc151_1968"
    INDEX 01 01:31:30
  TRACK 44 AUDIO
    TITLE "0:"
    INDEX 01 01:35:33
  TRACK 45 AUDIO
    TITLE "2:cjc151_1969"
    INDEX 01 01:37:11
  TRACK 46 AUDIO
    TITLE "0:"
    INDEX 01 01:38:36
  TRACK 47 AUDIO
    TITLE "3:cjc151_1970"
    INDEX 01 01:40:13
  TRACK 48 AUDIO
    TITLE "0:"
    INDEX 01 01:44:23
  TRACK 49 AUDIO
    TITLE "2:cjc151_1971"
    INDEX 01 01:46:02
  TRACK 50 AUDIO
    TITLE "0:"
    INDEX 01 01:47:29
  TRACK 51 AUDIO
    TITLE "3:cjc151_1972"
    INDEX 01 01:49:08
  TRACK 52 AUDIO
    TITLE "0:"
    INDEX 01 01:53:16
  TRACK 53 AUDIO
    TITLE "2:cjc151_1973"
    INDEX 01 01:54:70
  TRACK 54 AUDIO
    TITLE "0:"
    INDEX 01 01:56:04
  TRACK 55 AUDIO
    TITLE "3:cjc151_1974"
    INDEX 01 01:57:57
  TRACK 56 AUDIO
    TITLE "0:"
    INDEX 01 02:02:24
  TRACK 57 AUDIO
    TITLE "2:cjc151_1975"
    INDEX 01 02:04:04
  TRACK 58 AUDIO
    TITLE "0:"
    INDEX 01 02:05:13
  TRACK 59 AUDIO
    TITLE "3:cjc151_1976"
    INDEX 01 02:06:65
  TRACK 60 AUDIO
    TITLE "0:"
    INDEX 01 02:11:02
  TRACK 61 AUDIO
    TITLE "2:cjc151_1977"
    INDEX 01 02:12:54
  TRACK 62 AUDIO
    TITLE "0:"
    INDEX 01 02:14:16
  TRACK 63 AUDIO
    TITLE "3:cjc151_1978"
    INDEX 01 02:15:74
  TRACK 64 AUDIO
    TITLE "0:"
    INDEX 01 02:20:50
  TRACK 65 AUDIO
    TITLE "2:cjc151_1979"
    INDEX 01 02:22:29
  TRACK 66 AUDIO
    TITLE "0:"
    INDEX 01 02:23:48
  TRACK 67 AUDIO
    TITLE "3:cjc151_1980"
    INDEX 01 02:25:25
  TRACK 68 AUDIO
    TITLE "0:"
    INDEX 01 02:29:08
  TRACK 69 AUDIO
    TITLE "2:cjc151_1981"
    INDEX 01 02:30:58
  TRACK 70 AUDIO
    TITLE "0:"
    INDEX 01 02:32:00
  TRACK 71 AUDIO
    TITLE "3:cjc151_1982"
    INDEX 01 02:33:54
  TRACK 72 AUDIO
    TITLE "0:"
    INDEX 01 02:37:74
  TRACK 73 AUDIO
    TITLE "2:cjc151_1983"
    INDEX 01 02:39:51
  TRACK 74 AUDIO
    TITLE "0:"
    INDEX 01 02:40:64
  TRACK 75 AUDIO
    TITLE "3:cjc151_1984"
    INDEX 01 02:42:43
  TRACK 76 AUDIO
    TITLE "0:"
    INDEX 01 02:46:45
  TRACK 77 AUDIO
    TITLE "2:cjc151_1985"
    INDEX 01 02:48:24
  TRACK 78 AUDIO
    TITLE "0:"
    INDEX 01 02:49:67
  TRACK 79 AUDIO
    TITLE "3:cjc151_1986"
    INDEX 01 02:51:46
  TRACK 80 AUDIO
    TITLE "0:"
    INDEX 01 02:55:19
  TRACK 81 AUDIO
    TITLE "2:cjc151_1987"
    INDEX 01 02:56:71
  TRACK 82 AUDIO
    TITLE "0:"
    INDEX 01 02:58:21
  TRACK 83 AUDIO
    TITLE "3:cjc151_1988"
    INDEX 01 02:59:71
  TRACK 84 AUDIO
    TITLE "0:"
    INDEX 01 03:04:10
  TRACK 85 AUDIO
    TITLE "2:cjc151_1989"
    INDEX 01 03:05:64
  TRACK 86 AUDIO
    TITLE "0:"
    INDEX 01 03:07:14
  TRACK 87 AUDIO
    TITLE "3:cjc151_1990"
    INDEX 01 03:08:66
  TRACK 88 AUDIO
    TITLE "0:"
    INDEX 01 03:12:25
